{"title":"50 Cent Ft. Eminem &amp; Adam Levine - My Life [Music Video] 108","uid":9303977,"size":72032566,"categoryP":"video","categoryS":"music_videos","magnet":"?xt=urn:btih:6391f72279073ecb78a63b4c520e416f9030d9dd&amp;dn=50+Cent+Ft.+Eminem+%26amp%3B+Adam+Levine+-+My+Life+%5BMusic+Video%5D+108&amp;tr=udp%3A%2F%2Ftracker.openbittorrent.com%3A80&amp;tr=udp%3A%2F%2Fopen.demonii.com%3A1337&amp;tr=udp%3A%2F%2Ftracker.coppersurfer.tk%3A6969&amp;tr=udp%3A%2F%2Fexodus.desync.com%3A6969","seeders":0,"leechers":0,"uploader":"Sbyky","files":1,"time":1386284419,"description":"\n\nGeneral\nComplete name                            : 50 Cent Ft. Eminem &amp; Adam Levine - My Life [Music Video] 1080p [Sbyky].MP4\nFormat                                   : MPEG-4\nFormat profile                           : Base Media\nCodec ID                                 : isom\nFile size                                : 68.7 MiB\nDuration                                 : 4mn 4s\nOverall bit rate mode                    : Variable\nOverall bit rate                         : 2 356 Kbps\nEncoded date                             : UTC 2013-11-12 09:48:52\nTagged date                              : UTC 2013-11-12 09:48:52\n\nVideo\nID                                       : 1\nFormat                                   : AVC\nFormat/Info                              : Advanced Video Codec\nFormat profile                           : &lt;a class=&quot;__cf_email__&quot; href=&quot;/cdn-cgi/l/email-protection&quot; data-cfemail=&quot;337b5a545b737f071d03&quot;&gt;[email&amp;#160;protected]&lt;/a&gt;&lt;script data-cfhash='f9e31' type=&quot;text/javascript&quot;&gt;\n/* &lt;![CDATA[ */!function(){try{var t=&quot;currentScript&quot;in document?document.currentScript:function(){for(var t=document.getElementsByTagName(&quot;script&quot;),e=t.length;e--;)if(t[e].getAttribute(&quot;data-cfhash&quot;))return t[e]}();if(t&amp;&amp;t.previousSibling){var e,r,n,i,c=t.previousSibling,a=c.getAttribute(&quot;data-cfemail&quot;);if(a){for(e=&quot;&quot;,r=parseInt(a.substr(0,2),16),n=2;a.length-n;n+=2)i=parseInt(a.substr(n,2),16)^r,e+=String.fromCharCode(i);e=document.createTextNode(e),c.parentNode.replaceChild(e,c)}t.parentNode.removeChild(t);}}catch(u){}}()/* ]]&gt; */&lt;/script&gt;\nFormat settings, CABAC                   : Yes\nFormat settings, ReFrames                : 3 frames\nCodec ID                                 : avc1\nCodec ID/Info                            : Advanced Video Coding\nDuration                                 : 4mn 4s\nBit rate                                 : 2 100 Kbps\nWidth                                    : 1 920 pixels\nHeight                                   : 1 080 pixels\nDisplay aspect ratio                     : 16:9\nFrame rate mode                          : Variable\nFrame rate                               : 23.976 fps\nMinimum frame rate                       : 23.974 fps\nMaximum frame rate                       : 2 195.122 fps\nColor space                              : YUV\nChroma subsampling                       : 4:2:0\nBit depth                                : 8 bits\nScan type                                : Progressive\nBits/(Pixel*Frame)                       : 0.042\nStream size                              : 61.2 MiB (89%)\nEncoded date                             : UTC 2013-11-12 09:48:52\nTagged date                              : UTC 2013-11-12 09:48:52\n\nAudio\nID                                       : 2\nFormat                                   : AAC\nFormat/Info                              : Advanced Audio Codec\nFormat profile                           : LC\nCodec ID                                 : 40\nDuration                                 : 4mn 4s\nBit rate mode                            : Variable\nBit rate                                 : 254 Kbps\nChannel(s)                               : 2 channels\nChannel positions                        : Front: L R\nSampling rate                            : 44.1 KHz\nCompression mode                         : Lossy\nDelay relative to video                  : 42ms\nStream size                              : 7.39 MiB (11%)\nEncoded date                             : UTC 2013-11-12 09:46:40\nTagged date                              : UTC 2013-11-12 09:46:40\n\nShared By Sbyky\n","torrent":{"xt":"urn:btih:6391f72279073ecb78a63b4c520e416f9030d9dd","amp;dn":"50+Cent+Ft.+Eminem+%26amp%3B+Adam+Levine+-+My+Life+%5BMusic+Video%5D+108","amp;tr":["udp%3A%2F%2Ftracker.openbittorrent.com%3A80","udp%3A%2F%2Fopen.demonii.com%3A1337","udp%3A%2F%2Ftracker.coppersurfer.tk%3A6969","udp%3A%2F%2Fexodus.desync.com%3A6969"],"infoHash":"6391f72279073ecb78a63b4c520e416f9030d9dd","infoHashBuffer":{"type":"Buffer","data":[99,145,247,34,121,7,62,203,120,166,59,76,82,14,65,111,144,48,217,221]},"announce":[],"urlList":[]}}